<?xml version="1.0" encoding="UTF-8" standalone="no"?><!DOCTYPE svg PUBLIC "-//W3C//DTD SVG 1.1//EN" "http://www.w3.org/Graphics/SVG/1.1/DTD/svg11.dtd"><svg width="100%" height="100%" viewBox="0 0 73 100" version="1.1" xmlns="http://www.w3.org/2000/svg" xmlns:xlink="http://www.w3.org/1999/xlink" xml:space="preserve" xmlns:serif="http://www.serif.com/" style="fill-rule:evenodd;clip-rule:evenodd;stroke-linejoin:round;stroke-miterlimit:1.41421;"><clipPath id="_clip1"><rect id="heat" x="8.181" y="83.474" width="55.898" height="16.128"/></clipPath><g clip-path="url(#_clip1)"><path d="M21.342,99.602l-3.398,0l0,-6.933l-6.358,0l0,6.933l-3.405,0l0,-16.062l3.405,0l0,6.295l6.358,0l0,-6.295l3.395,0l0.003,16.062Zm13.305,0l-9.251,0l0,-16.062l9.251,0l0,2.787l-5.845,0l0,3.525l5.438,0l0,2.79l-5.438,0l0,4.147l5.845,0l0,2.813Zm13.183,0l-1.161,-3.825l-5.859,0l-1.165,3.825l-3.669,0l5.668,-16.125l4.164,0l5.692,16.125l-3.67,0Zm-1.978,-6.68c-1.076,-3.464 -1.682,-5.424 -1.818,-5.878c-0.135,-0.454 -0.232,-0.813 -0.29,-1.077c-0.241,0.938 -0.934,3.256 -2.077,6.954l4.185,0.001Zm13.867,6.68l-3.406,0l0,-13.228l-4.361,0l0,-2.834l12.129,0l0,2.834l-4.362,0l0,13.228Z" style="fill-rule:nonzero;"/></g><clipPath id="_clip2"><rect id="flame" x="0" y="0" width="72.26" height="72.26"/></clipPath><g clip-path="url(#_clip2)"><path d="M25.506,72.165c0.706,0.375 1.45,-0.438 1.018,-1.11c-2.346,-3.651 -4.567,-9.794 -1.028,-17.705c5.902,-13.193 9.493,-20.026 9.493,-20.026c0,0 1.91,7.974 7.087,15.064c4.984,6.824 7.711,15.406 3.314,22.555c-0.413,0.671 0.315,1.463 1.016,1.104c5.443,-2.784 11.548,-8.37 12.237,-19.484c0.254,-3.396 -0.127,-8.151 -2.031,-14.151c-2.449,-7.604 -5.46,-11.153 -7.202,-12.677c-0.521,-0.456 -1.331,-0.051 -1.288,0.639c0.507,8.206 -2.58,10.288 -4.337,5.595c-0.701,-1.874 -1.111,-5.116 -1.111,-9.063c0,-6.573 -1.907,-13.339 -6.111,-18.837c-1.093,-1.429 -2.372,-2.765 -3.84,-3.905c-0.531,-0.412 -1.301,0.003 -1.252,0.673c0.322,4.456 0.03,17.225 -11.173,32.481c-10.157,14.151 -6.221,25.019 -4.825,27.962c2.671,5.639 6.395,8.951 10.033,10.885Z" style="fill:#e5190a;fill-rule:nonzero;"/></g></svg>