<svg xmlns="http://www.w3.org/2000/svg" xmlns:xlink="http://www.w3.org/1999/xlink" viewBox="0 0 148 188"><defs><style>.a{fill:url(#a);}</style><pattern id="a" width="1" height="1" viewBox="-2.127 -2.127 148 148"><image preserveAspectRatio="none" width="148" height="148" xlink:href="Group%209-image.png"/></pattern></defs><g transform="translate(-114 -130)"><rect class="a" width="148" height="148" transform="translate(114 130)"/><path d="M65.331,32H60.8V22.757H52.323V32H47.782V10.584h4.541v8.394H60.8V10.584h4.526ZM83.07,32H70.736V10.584H83.07V14.3H75.277v4.7h7.251v3.721H75.277V28.25H83.07Zm17.578,0L99.1,26.9H91.288L89.735,32H84.842L92.4,10.5h5.552L105.541,32Zm-2.637-8.906q-2.153-6.929-2.424-7.837T95.2,13.821q-.483,1.875-2.769,9.272ZM116.5,32h-4.541V14.363h-5.815V10.584h16.172v3.779H116.5Z" transform="translate(103.218 286)"/></g></svg>