<svg xmlns="http://www.w3.org/2000/svg" xmlns:xlink="http://www.w3.org/1999/xlink" viewBox="0 0 130 22.089"><defs><style>.a,.b,.e{fill:#e5e5e5;}.b{clip-rule:evenodd;}.c{clip-path:url(#a);}.d{clip-path:url(#b);}.e{fill-rule:evenodd;}.f{clip-path:url(#c);}</style><clipPath id="a"><rect class="a" width="12.932" height="3.206"/></clipPath><clipPath id="b"><rect class="a" width="12.932" height="3.157"/></clipPath><clipPath id="c"><path class="b" d="M370.506,48.1l12.972-.012v3.033H370.506Z" transform="translate(-370.506 -48.085)"/></clipPath></defs><g transform="translate(122.52)"><rect class="a" width="0.437" height="5.8" transform="translate(0 0.083)"/><path class="a" d="M519.746,0a2.8,2.8,0,0,0-2.921,2.978,2.922,2.922,0,1,0,5.841.017A2.8,2.8,0,0,0,519.746,0Zm0,.413a2.407,2.407,0,0,1,2.491,2.574,2.489,2.489,0,1,1-4.974,0A2.383,2.383,0,0,1,519.746.413Z" transform="translate(-515.187)"/></g><path class="a" d="M5.48,35.588H8.736V21.245h5.48V18.286H0v2.959H5.48Z" transform="translate(0 -13.893)"/><path class="a" d="M73.108,16.95c-5.975,0-8.886,4.564-8.886,9.107s2.811,8.91,8.886,8.91,8.811-4.465,8.861-8.935C82.019,21.514,79.059,16.95,73.108,16.95Zm0,2.959c4.074,0,5.7,3.259,5.654,6.173-.049,2.84-1.58,5.9-5.654,5.9s-5.605-3.037-5.679-5.877C67.355,23.193,69.034,19.909,73.108,19.909Z" transform="translate(-48.794 -12.878)"/><path class="a" d="M150.868,28.108h4.988c1.334,0,3.235.815,3.235,2.372,0,1.63-1.9,2.075-3.235,2.075h-4.988Zm0-6.863h4.988c2.074,0,2.717,1.342,2.717,2.138,0,.994-.667,1.864-2.717,1.864h-4.988Zm4.988-2.959h-8.195v17.3h8.195c3.58,0,6.466-1.233,6.466-5.084a4.213,4.213,0,0,0-2.762-3.851,3.52,3.52,0,0,0,2.244-3.345c0-3.493-2.54-5.022-5.947-5.022Z" transform="translate(-112.189 -13.893)"/><path class="a" d="M225.087,16.95c-5.975,0-8.886,4.564-8.886,9.107s2.811,8.91,8.886,8.91,8.811-4.465,8.861-8.935C234,21.514,231.037,16.95,225.087,16.95Zm0,2.959c4.074,0,5.7,3.259,5.654,6.173-.049,2.84-1.58,5.9-5.654,5.9s-5.605-3.037-5.679-5.877C219.333,23.193,221.012,19.909,225.087,19.909Z" transform="translate(-164.262 -12.878)"/><path class="a" d="M314.629,35.588h-4.007l-4.076-5.776h-3.136v5.776h-3.255v-17.3c2.737,0,5.478.025,8.219,0,4.073.025,6.219,2.737,6.219,5.737a5.129,5.129,0,0,1-4.366,5.442Zm-6.256-8.711a2.784,2.784,0,1,0,0-5.557h-4.964v5.557Z" transform="translate(-228.047 -13.893)"/><g transform="translate(89.008 4.393)"><rect class="a" width="12.932" height="3.206" transform="translate(0 14.095)"/><g class="c" transform="translate(0 14.095)"><rect class="a" width="2.7" height="18.473" transform="translate(12.972 -14.416)"/></g><rect class="a" width="12.932" height="3.157"/><g class="d"><rect class="a" width="2.7" height="18.473" transform="translate(12.972 -0.321)"/></g><path class="e" d="M370.506,48.1l12.972-.012v3.033H370.506Z" transform="translate(-370.506 -40.926)"/><g class="f" transform="translate(0 7.159)"><rect class="a" width="2.7" height="18.473" transform="translate(12.972 -7.48)"/></g></g><path class="a" d="M448.615,18.286h-4.049L438,25.6v2.323l7.233,7.662h4.024v-.2l-8.319-8.725,7.677-8.28Z" transform="translate(-332.778 -13.893)"/></svg>